<?xml version="1.0" encoding="UTF-8"?>
<svg xmlns="http://www.w3.org/2000/svg" xmlns:xlink="http://www.w3.org/1999/xlink" width="14pt" height="14pt" viewBox="0 0 14 14" version="1.1">
<g id="surface1">
<path style=" stroke:none;fill-rule:nonzero;fill-opacity:1;" d="M 10.46875 0.875 L 3.53125 0.875 C 2.855469 0.875 2.304688 1.421875 2.304688 2.101562 L 2.304688 11.898438 C 2.304688 12.578125 2.855469 13.125 3.53125 13.125 L 10.46875 13.125 C 11.144531 13.125 11.695312 12.578125 11.695312 11.898438 L 11.695312 2.101562 C 11.695312 1.421875 11.144531 0.875 10.46875 0.875 Z M 10.878906 11.898438 C 10.878906 12.125 10.695312 12.308594 10.46875 12.308594 L 3.53125 12.308594 C 3.304688 12.308594 3.121094 12.125 3.121094 11.898438 L 3.121094 2.101562 C 3.121094 1.875 3.304688 1.691406 3.53125 1.691406 L 10.46875 1.691406 C 10.695312 1.691406 10.878906 1.875 10.878906 2.101562 Z M 10.878906 11.898438 "/>
<path style=" stroke:none;fill-rule:nonzero;fill-opacity:1;" d="M 9.550781 4.550781 L 4.449219 4.550781 C 4.292969 4.535156 4.140625 4.609375 4.058594 4.742188 C 3.976562 4.875 3.976562 5.042969 4.058594 5.175781 C 4.140625 5.308594 4.292969 5.382812 4.449219 5.367188 L 9.550781 5.367188 C 9.707031 5.382812 9.859375 5.308594 9.941406 5.175781 C 10.023438 5.042969 10.023438 4.875 9.941406 4.742188 C 9.859375 4.609375 9.707031 4.535156 9.550781 4.550781 Z M 9.550781 4.550781 "/>
<path style=" stroke:none;fill-rule:nonzero;fill-opacity:1;" d="M 9.550781 6.59375 L 4.449219 6.59375 C 4.226562 6.59375 4.042969 6.773438 4.042969 7 C 4.042969 7.226562 4.226562 7.40625 4.449219 7.40625 L 9.550781 7.40625 C 9.773438 7.40625 9.957031 7.226562 9.957031 7 C 9.957031 6.773438 9.773438 6.59375 9.550781 6.59375 Z M 9.550781 6.59375 "/>
<path style=" stroke:none;fill-rule:nonzero;fill-opacity:1;" d="M 9.550781 8.632812 L 4.449219 8.632812 C 4.292969 8.617188 4.140625 8.691406 4.058594 8.824219 C 3.976562 8.957031 3.976562 9.125 4.058594 9.257812 C 4.140625 9.390625 4.292969 9.464844 4.449219 9.449219 L 9.550781 9.449219 C 9.707031 9.464844 9.859375 9.390625 9.941406 9.257812 C 10.023438 9.125 10.023438 8.957031 9.941406 8.824219 C 9.859375 8.691406 9.707031 8.617188 9.550781 8.632812 Z M 9.550781 8.632812 "/>
</g>
</svg>
